<svg xmlns="http://www.w3.org/2000/svg" version="1.0" viewBox="0 0 600 600">
    <path fill="#08141e" d="m300 0c-165.6 0-300 134.4-300 300s134.4 300 300 300 300-134.4 300-300-134.4-300-300-300zm-14.158 24.872c.1688-.009.34134.008.5102 0l1.2755 20.344c-17.303.82496-34.145 3.3483-50.383 7.4617l5.0383 19.834c-42.622 10.796-80.585 33.241-110.33 63.776l-14.605-14.286c-11.89 12.19-22.511 25.57-31.773 39.93l-17.092-11.29c46.685-72.18 126.2-121.14 217.34-125.77zm27.806 0c91.363 4.4693 171.09 53.454 217.86 125.77l-17.092 11.288c-9.2416-14.316-19.851-27.699-31.696-39.86l-14.61 14.22c-29.75-30.55-67.76-52.978-110.39-63.777l5.0383-19.834c-16.238-4.1134-33.079-6.6368-50.383-7.4617zm-13.648 89.923c8.6735-.0199 17.347.5102 24.49 1.5306l-11.161 92.857c23.459 3.4209 44.028 15.699 58.227 33.355l74.49-55.867c9.0481 11.272 19.306 28.955 24.681 42.347l-85.587 36.607c4.3019 10.628 6.6964 22.21 6.6964 34.375 0 11.72-2.1788 22.919-6.1862 33.227l84.885 36.288c-5.2376 13.472-15.388 31.123-24.298 42.474l-73.98-55.357c-14.18 18.059-34.984 30.67-58.737 34.184l10.969 91.327c-14.286 2.2-34.694 2.1684-48.98.12756l10.969-91.454c-23.77-3.5162-44.556-16.167-58.737-34.247l-73.788 55.357c-9.0481-11.272-19.306-28.955-24.681-42.347l85.077-36.416c-3.9938-10.293-6.1862-21.465-6.1862-33.163 0-12.186 2.3804-23.795 6.6964-34.439l-85.395-36.48c5.2376-13.472 15.388-31.123 24.298-42.474l74.681 55.931c14.199-17.656 34.768-29.934 58.227-33.355l-11.16-92.73c7.1429-1.1 15.816-1.6383 24.49-1.6582zm-245.15 59.439 18.367 9.0561c-7.7467 15.018-14.081 30.875-18.75 47.449l19.643 5.5485c-5.7105 20.265-8.801 41.628-8.801 63.712 0 22.105 3.0798 43.493 8.801 63.776l-19.643 5.5485c4.6662 16.548 11.013 32.39 18.75 47.385l-18.367 9.0561c-19.401-37.73-30.36-80.48-30.36-125.78 0-45.301 10.959-88.054 30.357-125.77zm490.31 0c19.398 37.711 30.357 80.464 30.357 125.77 0 45.301-10.959 88.054-30.357 125.77l-18.367-9.0561c7.7405-15 14.082-30.832 18.75-47.385l-19.643-5.5485c5.7212-20.283 8.801-41.67 8.801-63.776 0-22.084-3.0905-43.446-8.801-63.712l19.643-5.5485c-4.67-16.58-11.01-32.44-18.75-47.46zm-459.57 263.83c9.266 14.351 19.881 27.737 31.76 39.923l14.605-14.286c29.746 30.534 67.71 52.98 110.33 63.776l-5.0383 19.834c16.238 4.1134 33.079 6.6368 50.383 7.4618l-1.2755 20.344c-91.36-4.45-171.09-53.44-217.86-125.75zm428.89 0 17.028 11.288c-46.77 72.31-126.5 121.3-217.86 125.77l-1.2755-20.344c17.303-.82496 34.145-3.3484 50.383-7.4618l-5.0383-19.834c42.637-10.8 80.645-33.225 110.4-63.776l14.605 14.222c11.86-12.176 22.507-25.525 31.76-39.86z"/>
</svg>
