<svg xmlns="http://www.w3.org/2000/svg" version="1.1" viewBox="0 0 8.4666805 8.4666805" width="8.4666805" height="8.4666805">
	<path fill="#ffffff" d="m.20355805 8.2631244c.27693055.2772833.54786388.2712861.81315275-.0179917l3.2166277-3.1806444 3.2166277 3.1806444c.26528890.2892778.53622220.2952750.81315280.0179917.27728330-.2769306.27128610-.5478639-.01799170-.8131528l-3.1806444-3.2166277 3.1806444-3.2166277c.28927780-.26528887 0.295275-.5362222.01799170-.81315275-.27693060-.27728332-.54786390-.27128610-.81315280.01799167l-3.2166277 3.18064438-3.2166277-3.18064438c-.26528887-.28927777-.53622220-.29527499-.81315275-.01799167-.27728332.27693055-.27128610.54786388.01799167.81315275l3.18064438 3.2166277-3.18064438 3.2166277c-.28927777.2652889-.29527499.5362222-.0179917.8131528z"/>
</svg>
