<svg xmlns="http://www.w3.org/2000/svg" version="1.1" viewBox="0 0 22.577778 22.577778" width="22.577778" height="22.577778">
	<path fill="#ffffff" d="m11.288889 0c-6.2392275 0-11.288889 5.0574221-11.288889 11.288889 0 6.231466 5.0574226 11.288888 11.288889 11.288888 6.231467 0 11.288889-5.057422 11.288889-11.288888 0-6.2314669-5.049661-11.288889-11.288889-11.288889zm1.370895 6.4833498 2.434166 3.7973002-2.450041.0078zm-1.339497-4.6478471c.06315.070908.827263.9295694 1.110897 2.8359805-.346781.063147-.724606.1023055-1.110897.1023055-.385939-.00776-.764117-.039158-1.110545-.1023055.27552-1.9064111 1.04775-2.7728333 1.110545-2.8359805zm-7.7438254 13.1716633h2.3004638c.9059333 0 1.6305388-.724605 1.6305388-1.615016l-.023636-2.260953h1.1504083v2.623608c0 .0078-.023636.519642-.1654527.787753-.2836334.527756-.6618111.92957-1.1581695 1.228725-.5436305.330906-1.0318749.394053-1.7331971.394053h-2.0009556zm2.3004638 2.434167h-2.3004638v-1.126419h2.0009555c.7327194 0 1.2368388-.06315 1.8118666-.417336.5199944-.315384.9140472-.740834 1.2054416-1.284112.1573389-.291747.180975-.827263.180975-.850899v-2.623256h1.1659306v2.260953c-.0078 2.229202-1.8273889 4.041069-4.0647055 4.041069zm4.0569445-7.152922-2.4578029-0.0078 2.4891999-3.7973002zm1.3864171 2.52095s-.472723-.590903-.535517-1.607256c.19685.01587.401814.02364.606425.02364.141817 0 .283633-.0078.417689-.0078-.01587.945445-.488597 1.591381-.488597 1.591381zm.05539-1.733197c-.449086 0-.890411-.03951-1.292225-.11042v-.527755c.401814.07091.843139.110419 1.292225.110419.3937 0 .771877-.0314 1.13418-.08678v.527755c-.362303.05539-.74048.08678-1.13418.08678zm1.13418-.771878c-.378178.07091-.787753.102306-1.213203.110067-.417336-.0078-.835025-.03916-1.213202-.110067 0-1.3236223.02364-4.2146362.02364-4.2227501 0-.4646083.03175-.8900583.07902-1.2759972.346428.062794.732719.1023056 1.126419.1023056.394053-.00776.779992-.039511 1.12642-.1023056.04727.3859389.07902.8036278.07902 1.2759972.0078 0-.01587 2.8991278-.0081 4.2227501zm6.491464 7.137047h-2.300464c-2.237316 0-4.064705-1.811867-4.064705-4.049183v-2.260953h1.16593v2.623608c0 .02364.02364.559153.180975.850548.291395.551391.693209.96908 1.205442 1.284111.566914.34678 1.079147.417689 1.811866.417689h2.000956zm0-1.268236h-1.993194c-.709084 0-1.197328-.06315-1.733198-.3937-.496005-.299508-.874183-.709083-1.157816-1.229078-.141817-.267758-.165453-.787752-.165453-.787752v-2.623256h1.150055l-.02364 2.260953c0 .890058.724959 1.614664 1.630892 1.614664h2.300111v1.158169z"/>
</svg>
