<svg xmlns="http://www.w3.org/2000/svg" version="1.1" viewBox="0 0 11.288889 7.9022222" width="11.288889" height="7.9022222">
	<path fill="#ffffff" d="m.56444455 4.5155561h10.15999945c.164748 0 .299861-.052917.405695-.15875.105833-.1058334.15875-.2409473.15875-.4056945s-.05292-.2998611-.15875-.4056944c-.105834-.1058333-.240947-.15875-.405695-.15875h-10.15999945c-.16474722 0-.2998611.052917-.40569443.15875-.10583333.1058333-0.15875.2409472-0.15875.4056944s.05291667.2998611 0.15875.4056945c.10583333.1058333.24094721.15875.40569443.15875zm0-3.3866666h10.15999945c.164748 0 .299861-.052917.405695-.15875003.105833-.10583333.15875-.24094722.15875-.40569444s-.05292-.2998611-.15875-.40569443c-0.105834-.10583333-0.240947-0.15875-0.405695-0.15875h-10.15999945c-.16474722 1.3e-13-.29986110 0.05291667-.40569443 0.15875s-0.15875 0.24094721-0.15875 0.40569443.05291667.29986111 0.15875.40569444 0.24094721 0.15875003 0.40569443 0.15875003zm0 6.7733331h10.15999945c.164748 0 .299861-.052917.405695-.1587499.105833-.1058334.15875-.2409473.15875-.4056945s-.05292-.2998611-.15875-.4056944c-.105834-.1058334-.240947-.15875-.405695-.15875h-10.15999945c-.16474722 0-.2998611.052917-.40569443.15875-.10583333.1058333-0.15875.2409472-0.15875.4056944s.05291667.2998611 0.15875.4056945c.10583333.1058333.24094721.1587499.40569443.1587499z"/>
</svg>
